P3
# Created by GIMP version 2.10.30 PNM plug-inv
# Made by jasha uwu
4 
4
255
0
0
0
255
0
0
0
19
255
2
255
0
255
0
0
255
0
0
0
19
255
2
255
0
0
19
255
0
19
255
0
19
255
2
255
0
2
255
0
2
255
0
2
255
0
2
255
0
