P3
# Created by GIMP version 2.10.30 PNM plug-in
50 50
255
75
112
38
57
86
30
43
44
42
20
20
20
143
195
93
156
206
106
162
209
115
156
206
106
144
199
90
96
113
80
5
5
5
255
255
255
255
255
255
255
255
255
255
255
255
255
255
255
255
255
255
255
255
255
255
255
255
255
255
255
255
255
255
255
255
255
255
255
255
255
255
255
255
255
255
255
255
255
255
255
255
255
255
255
255
255
255
255
255
255
255
255
255
255
255
255
255
255
255
255
255
255
255
255
255
255
255
255
255
255
255
255
255
255
255
255
255
255
255
255
255
255
255
255
255
255
255
255
255
43
45
40
90
108
73
16
16
16
1
1
1
1
1
1
1
1
1
4
4
4
81
122
41
68
79
56
10
10
10
21
21
20
153
198
109
153
205
102
163
210
116
164
211
119
165
211
119
151
201
101
84
98
71
4
4
4
255
255
255
255
255
255
255
255
255
255
255
255
255
255
255
255
255
255
255
255
255
255
255
255
255
255
255
255
255
255
255
255
255
255
255
255
255
255
255
255
255
255
255
255
255
255
255
255
255
255
255
255
255
255
255
255
255
255
255
255
255
255
255
255
255
255
255
255
255
255
255
255
255
255
255
255
255
255
255
255
255
255
255
255
1
1
1
14
15
14
85
100
71
68
77
60
5
5
5
2
2
2
2
2
2
51
55
48
82
95
69
91
118
66
58
85
31
41
42
40
5
5
5
10
10
10
103
131
76
140
199
83
150
204
98
155
206
105
147
202
93
142
199
86
128
189
70
46
49
43
2
2
2
255
255
255
255
255
255
255
255
255
255
255
255
255
255
255
255
255
255
255
255
255
255
255
255
255
255
255
255
255
255
255
255
255
255
255
255
255
255
255
255
255
255
255
255
255
255
255
255
255
255
255
255
255
255
255
255
255
255
255
255
255
255
255
255
255
255
255
255
255
255
255
255
255
255
255
2
2
2
23
24
22
96
118
75
81
94
68
19
19
18
2
2
2
1
1
1
1
1
1
42
44
40
83
125
43
81
121
41
94
140
47
89
106
72
64
72
58
64
70
58
70
78
63
81
111
50
87
131
44
102
153
52
113
169
58
132
193
74
138
198
81
146
202
93
124
158
90
30
31
29
1
1
1
255
255
255
255
255
255
255
255
255
255
255
255
255
255
255
255
255
255
255
255
255
255
255
255
255
255
255
255
255
255
255
255
255
255
255
255
255
255
255
255
255
255
255
255
255
255
255
255
255
255
255
255
255
255
255
255
255
255
255
255
255
255
255
1
1
1
2
2
2
32
33
31
82
94
70
76
87
66
51
56
47
29
29
28
3
3
3
255
255
255
255
255
255
2
2
2
65
71
59
81
122
41
85
128
43
82
123
42
69
76
62
54
56
51
4
4
4
21
22
21
138
185
93
127
189
67
132
189
77
132
184
82
131
185
79
143
194
93
152
204
101
145
200
92
97
113
81
3
3
3
255
255
255
255
255
255
255
255
255
255
255
255
255
255
255
255
255
255
255
255
255
255
255
255
255
255
255
255
255
255
255
255
255
255
255
255
255
255
255
255
255
255
255
255
255
255
255
255
255
255
255
255
255
255
255
255
255
1
1
1
4
4
4
48
51
45
86
103
70
74
84
64
11
11
10
255
255
255
255
255
255
52
54
49
7
7
7
255
255
255
255
255
255
2
2
2
26
26
26
78
113
43
80
120
40
76
113
38
6
6
6
87
101
73
3
3
3
10
10
10
110
152
70
119
175
64
101
152
51
105
157
55
118
177
60
113
169
59
134
189
81
157
207
108
95
107
84
4
4
4
255
255
255
255
255
255
255
255
255
255
255
255
255
255
255
255
255
255
255
255
255
255
255
255
255
255
255
255
255
255
255
255
255
255
255
255
255
255
255
255
255
255
255
255
255
255
255
255
1
1
1
3
3
3
30
31
29
79
90
69
85
100
70
54
58
49
3
3
3
255
255
255
255
255
255
255
255
255
255
255
255
5
5
5
53
55
52
2
2
2
255
255
255
1
1
1
7
7
7
45
46
43
66
77
56
57
76
37
1
1
1
54
58
50
40
42
38
32
33
31
99
149
51
100
150
50
87
131
44
86
129
43
85
128
43
73
94
53
73
87
59
78
92
65
18
19
18
2
2
2
255
255
255
255
255
255
255
255
255
255
255
255
255
255
255
255
255
255
255
255
255
255
255
255
255
255
255
255
255
255
255
255
255
255
255
255
255
255
255
255
255
255
255
255
255
11
12
11
95
110
79
88
103
73
72
81
64
20
21
20
255
255
255
255
255
255
255
255
255
255
255
255
255
255
255
255
255
255
255
255
255
255
255
255
58
62
55
8
8
7
1
1
1
255
255
255
2
2
2
6
6
6
12
12
12
15
15
15
36
38
35
7
7
7
77
90
64
70
78
62
77
116
39
86
129
43
90
135
46
73
110
37
61
68
55
18
18
18
12
12
12
8
8
8
4
4
4
255
255
255
255
255
255
255
255
255
255
255
255
255
255
255
255
255
255
255
255
255
255
255
255
255
255
255
255
255
255
255
255
255
255
255
255
255
255
255
255
255
255
22
22
21
88
100
75
89
104
74
64
72
56
255
255
255
255
255
255
255
255
255
255
255
255
255
255
255
255
255
255
255
255
255
255
255
255
255
255
255
255
255
255
17
17
16
134
162
105
99
136
64
44
46
41
2
2
2
255
255
255
255
255
255
1
1
1
2
2
2
127
183
72
89
105
74
72
83
61
65
74
56
130
172
88
94
136
53
86
129
43
70
89
50
17
17
17
5
5
5
1
1
1
1
1
1
255
255
255
255
255
255
255
255
255
255
255
255
255
255
255
255
255
255
255
255
255
255
255
255
255
255
255
255
255
255
255
255
255
255
255
255
255
255
255
38
39
36
92
105
79
83
94
73
14
14
14
7
7
7
36
38
35
1
1
1
255
255
255
255
255
255
255
255
255
255
255
255
255
255
255
83
91
75
128
156
102
137
169
106
143
180
107
156
199
114
166
212
122
125
185
68
106
158
55
62
68
56
2
2
2
255
255
255
255
255
255
255
255
255
91
137
46
82
122
41
26
27
26
27
28
27
72
80
64
112
142
82
74
84
64
24
24
23
6
6
6
1
1
1
255
255
255
255
255
255
255
255
255
255
255
255
255
255
255
255
255
255
255
255
255
255
255
255
255
255
255
255
255
255
255
255
255
10
15
8
109
161
78
34
35
32
91
104
78
76
84
67
8
8
8
1
1
1
1
1
1
3
3
3
37
39
35
4
4
4
255
255
255
255
255
255
255
255
255
255
255
255
73
78
67
156
207
107
154
206
104
152
205
101
156
206
107
161
209
114
156
207
107
151
203
101
131
192
71
109
156
63
45
48
42
2
2
2
255
255
255
255
255
255
67
101
34
64
86
42
24
24
24
76
86
66
66
71
60
18
18
18
11
11
11
5
5
5
1
1
1
255
255
255
255
255
255
255
255
255
255
255
255
255
255
255
255
255
255
255
255
255
255
255
255
255
255
255
255
255
255
255
255
255
255
255
255
19
20
19
89
101
78
68
75
62
3
3
3
1
1
1
1
1
1
255
255
255
255
255
255
2
2
2
39
41
37
14
14
14
255
255
255
255
255
255
255
255
255
255
255
255
108
123
94
155
206
105
159
208
111
166
211
121
165
211
120
160
209
113
158
207
109
164
210
118
147
202
93
133
194
74
117
172
63
76
87
66
2
2
2
1
1
1
78
117
40
117
151
84
119
139
98
41
42
39
8
8
8
4
4
4
1
1
1
255
255
255
255
255
255
255
255
255
255
255
255
255
255
255
255
255
255
255
255
255
255
255
255
255
255
255
255
255
255
255
255
255
255
255
255
255
255
255
24
25
24
90
104
77
11
12
11
1
1
1
1
1
1
2
2
2
2
2
2
2
2
2
3
3
3
25
26
25
97
123
73
32
33
30
255
255
255
255
255
255
255
255
255
255
255
255
109
123
95
163
209
116
166
211
120
163
210
116
167
212
122
162
210
116
164
210
118
166
211
121
158
208
110
148
203
96
132
193
74
97
123
72
18
19
18
5
5
5
92
138
46
138
180
98
34
34
33
8
8
8
2
2
2
255
255
255
255
255
255
255
255
255
255
255
255
255
255
255
255
255
255
255
255
255
255
255
255
255
255
255
255
255
255
255
255
255
255
255
255
1
1
0
15
14
8
39
42
23
1
1
1
2
2
2
1
1
1
2
2
2
28
29
27
86
103
70
99
130
70
98
134
63
100
141
59
100
151
51
100
152
51
89
122
55
30
31
29
255
255
255
255
255
255
255
255
255
87
95
79
163
210
117
168
212
124
172
214
130
168
212
124
165
211
119
169
213
125
169
213
125
168
212
124
156
207
107
147
201
95
71
80
63
7
7
7
70
78
62
87
131
44
112
149
77
12
12
12
2
2
2
255
255
255
255
255
255
255
255
255
255
255
255
255
255
255
255
255
255
255
255
255
255
255
255
255
255
255
255
255
255
9
12
7
45
64
35
38
54
29
80
86
47
109
126
68
116
156
84
122
170
94
125
173
97
119
171
88
7
7
7
101
139
64
111
168
56
111
168
56
111
168
56
113
170
57
104
158
53
101
152
51
91
137
46
86
125
49
83
96
69
46
48
43
6
6
6
17
17
17
157
193
120
174
215
133
174
216
133
172
214
130
168
212
124
170
214
127
170
213
127
167
212
122
169
213
126
161
209
114
138
180
97
24
24
23
110
165
57
75
112
38
79
98
60
7
7
7
255
255
255
255
255
255
255
255
255
255
255
255
255
255
255
255
255
255
255
255
255
255
255
255
255
255
255
8
12
6
72
102
54
114
162
87
117
166
89
117
166
89
116
161
86
112
147
79
117
157
87
127
174
98
128
176
100
122
174
92
7
8
7
101
135
68
119
179
61
120
180
61
121
182
61
112
169
57
111
168
57
111
168
57
111
167
56
101
152
51
98
147
49
94
142
48
82
117
48
65
74
55
72
76
67
173
211
133
166
203
129
130
154
106
144
175
115
171
213
128
173
215
131
171
214
128
173
215
131
165
211
120
163
209
117
70
76
64
86
121
52
71
82
61
23
23
22
4
4
4
255
255
255
255
255
255
255
255
255
255
255
255
255
255
255
255
255
255
255
255
255
255
255
255
255
255
255
98
140
74
117
166
89
131
178
101
131
178
101
120
169
92
123
172
102
125
174
106
105
134
71
102
121
65
122
155
90
131
180
101
5
5
5
48
51
45
123
183
64
130
191
71
125
184
67
120
179
62
126
187
67
116
175
59
119
178
61
115
174
58
110
166
56
108
162
54
28
28
28
13
13
13
13
13
13
49
50
47
32
33
32
18
18
18
23
23
23
92
101
83
171
209
132
174
215
132
174
215
133
172
214
130
168
212
124
98
110
86
55
58
51
10
10
10
5
5
5
1
1
1
255
255
255
255
255
255
255
255
255
255
255
255
255
255
255
255
255
255
255
255
255
255
255
255
66
93
50
121
170
92
121
171
92
126
173
96
135
181
104
138
184
107
138
183
118
134
174
136
112
148
95
84
95
46
94
107
54
113
152
77
1
1
1
8
8
8
51
54
48
90
107
74
114
158
72
137
197
80
131
191
72
124
186
65
136
196
78
134
195
74
133
195
73
131
190
74
32
33
31
3
3
3
2
2
2
5
5
5
5
5
5
4
4
4
5
5
5
13
13
13
64
67
60
153
183
124
175
216
135
176
216
135
174
215
133
100
113
88
13
13
13
1
1
1
255
255
255
255
255
255
255
255
255
255
255
255
255
255
255
255
255
255
255
255
255
255
255
255
255
255
255
8
12
6
117
164
89
124
175
94
119
171
89
113
165
85
116
165
88
121
163
91
119
146
84
91
104
56
87
103
51
111
142
71
110
147
71
122
177
87
121
175
86
2
2
2
6
6
6
12
12
12
22
22
21
79
89
70
130
172
90
149
203
98
145
201
91
137
197
79
132
193
72
127
187
68
28
28
27
1
1
1
255
255
255
255
255
255
255
255
255
255
255
255
255
255
255
3
3
3
9
9
9
33
34
33
121
138
105
169
206
131
169
205
133
51
54
49
5
5
5
255
255
255
255
255
255
255
255
255
255
255
255
255
255
255
255
255
255
255
255
255
255
255
255
255
255
255
255
255
255
70
99
53
120
172
90
108
162
78
107
161
78
113
164
86
115
160
85
127
172
101
122
163
96
119
159
94
97
133
71
96
131
68
122
160
88
121
166
82
124
179
88
128
182
93
128
183
94
1
1
1
4
4
4
10
10
10
24
24
24
86
96
77
136
174
100
133
188
81
141
196
88
104
133
76
8
8
8
1
1
1
255
255
255
255
255
255
255
255
255
255
255
255
255
255
255
255
255
255
1
1
1
6
6
6
12
12
12
34
34
33
34
35
34
7
7
7
1
1
1
255
255
255
255
255
255
255
255
255
255
255
255
255
255
255
255
255
255
255
255
255
255
255
255
255
255
255
7
10
5
110
158
82
108
164
78
105
159
77
113
162
87
115
164
88
115
165
88
112
164
89
107
163
89
105
165
90
105
166
91
105
166
90
110
171
91
118
170
91
122
160
85
127
172
90
119
163
80
105
130
65
97
112
58
1
1
1
4
4
4
10
10
10
18
18
18
37
38
36
41
43
39
13
13
13
3
3
3
15
22
12
255
255
255
255
255
255
255
255
255
255
255
255
255
255
255
255
255
255
255
255
255
255
255
255
2
2
2
3
3
3
3
3
3
1
1
1
255
255
255
255
255
255
255
255
255
255
255
255
255
255
255
255
255
255
255
255
255
255
255
255
255
255
255
255
255
255
27
39
19
108
160
79
106
161
77
111
160
86
115
161
89
115
162
89
115
162
89
112
163
89
106
164
89
105
164
89
105
164
89
105
165
89
113
172
92
117
177
98
102
130
73
70
64
30
83
77
38
93
118
58
108
143
75
108
143
76
109
141
73
1
1
1
3
3
3
4
4
4
4
4
4
2
2
2
126
173
103
77
110
59
255
255
255
255
255
255
255
255
255
255
255
255
255
255
255
255
255
255
255
255
255
255
255
255
255
255
255
3
3
3
81
88
73
99
110
87
18
18
18
255
255
255
255
255
255
255
255
255
255
255
255
255
255
255
255
255
255
255
255
255
255
255
255
255
255
255
45
57
29
105
156
74
109
160
82
114
160
90
114
161
89
115
161
89
115
161
89
114
161
89
114
163
87
109
161
85
101
153
79
103
154
79
129
177
110
164
204
166
157
195
157
103
110
69
80
89
39
94
138
63
112
161
84
116
165
88
116
165
88
116
164
87
118
165
86
122
168
82
121
168
87
149
193
137
151
195
141
115
163
88
255
255
255
255
255
255
255
255
255
255
255
255
255
255
255
255
255
255
255
255
255
1
1
1
15
15
15
123
144
103
159
207
112
153
205
103
147
183
111
255
255
255
255
255
255
255
255
255
255
255
255
255
255
255
255
255
255
255
255
255
255
255
255
255
255
255
69
82
44
104
147
74
111
157
84
114
160
90
114
159
90
114
159
90
114
160
89
114
160
89
111
159
86
99
148
74
97
146
72
111
160
84
148
189
139
180
212
189
189
218
203
132
156
116
81
101
44
90
134
60
105
153
76
116
165
88
116
165
88
121
169
96
125
171
102
119
167
91
123
168
82
134
179
108
159
201
153
129
176
108
255
255
255
255
255
255
255
255
255
255
255
255
255
255
255
255
255
255
1
1
1
39
40
38
138
169
109
162
209
115
155
206
105
152
205
100
152
205
101
255
255
255
255
255
255
255
255
255
255
255
255
255
255
255
255
255
255
255
255
255
255
255
255
255
255
255
69
80
43
107
132
75
109
144
82
113
156
88
113
158
90
114
158
90
114
159
89
112
157
88
103
149
80
97
146
73
102
150
75
113
162
85
122
171
98
140
185
128
164
201
165
131
162
115
82
103
45
87
130
56
98
146
69
112
162
84
119
168
93
156
195
151
178
211
185
158
196
153
126
173
100
123
168
83
149
193
138
130
177
109
255
255
255
255
255
255
255
255
255
255
255
255
255
255
255
255
255
255
4
4
4
139
167
110
155
206
106
152
205
102
155
206
105
150
204
99
153
205
103
255
255
255
255
255
255
255
255
255
255
255
255
255
255
255
255
255
255
255
255
255
255
255
255
255
255
255
69
79
42
105
122
66
108
126
71
110
138
79
106
147
83
107
150
85
108
152
86
105
149
83
102
147
79
97
146
72
104
150
77
110
156
82
113
163
85
115
165
88
121
171
100
106
139
77
84
111
53
87
131
57
92
140
63
102
152
74
120
169
97
163
200
161
184
215
193
171
206
174
136
180
118
123
168
82
139
185
122
113
157
89
255
255
255
255
255
255
255
255
255
255
255
255
255
255
255
1
1
1
29
30
29
148
200
98
156
206
106
140
199
84
140
198
83
145
201
91
153
205
102
255
255
255
255
255
255
255
255
255
255
255
255
255
255
255
255
255
255
255
255
255
255
255
255
255
255
255
67
77
41
105
121
64
109
108
57
110
112
56
108
125
64
106
136
71
105
143
77
104
146
79
100
145
74
99
145
72
106
151
78
107
152
79
110
156
82
110
158
82
108
157
82
100
133
68
85
117
60
88
132
60
94
144
65
97
150
69
104
157
77
126
173
100
135
179
116
131
176
110
118
167
88
124
169
82
135
182
117
83
118
64
255
255
255
255
255
255
255
255
255
255
255
255
255
255
255
1
1
1
13
13
13
126
179
74
133
194
74
139
198
83
136
196
78
147
203
94
151
204
99
255
255
255
255
255
255
255
255
255
255
255
255
255
255
255
255
255
255
255
255
255
255
255
255
255
255
255
68
79
37
105
121
64
107
113
59
109
111
52
108
118
53
106
125
54
105
131
57
104
133
60
101
139
66
100
144
71
106
151
78
107
151
79
107
151
79
107
151
79
107
151
79
98
135
66
86
121
61
89
134
62
96
148
68
99
153
72
102
159
76
116
166
80
124
168
81
123
168
82
124
168
81
124
169
81
127
174
104
42
60
32
255
255
255
255
255
255
255
255
255
255
255
255
255
255
255
255
255
255
7
7
7
95
114
76
132
193
73
132
193
72
131
193
71
144
200
89
146
201
92
255
255
255
255
255
255
255
255
255
255
255
255
255
255
255
255
255
255
255
255
255
255
255
255
255
255
255
42
49
22
105
120
60
105
119
63
108
112
53
107
119
53
106
125
55
105
130
56
106
130
56
105
132
58
102
140
69
106
150
78
107
151
79
107
151
79
107
151
79
107
151
79
95
138
65
87
129
61
93
142
65
98
151
70
101
156
74
106
162
79
120
168
81
125
169
81
125
169
81
125
169
81
123
168
82
114
162
87
6
9
5
255
255
255
255
255
255
255
255
255
255
255
255
255
255
255
255
255
255
3
3
3
15
15
15
86
101
72
121
178
65
117
174
61
119
179
61
141
196
88
255
255
255
255
255
255
255
255
255
255
255
255
255
255
255
255
255
255
255
255
255
255
255
255
255
255
255
22
24
11
103
115
55
105
120
64
107
116
58
108
118
54
108
123
55
108
128
60
109
129
61
106
128
57
105
133
61
105
146
74
106
150
78
107
151
79
107
151
79
105
150
77
93
140
64
1
1
1
23
23
22
75
84
66
11
12
11
1
1
1
6
6
6
16
17
16
1
1
1
124
168
80
2
2
2
24
24
23
32
34
31
59
64
54
54
60
48
62
70
55
76
86
66
48
51
45
255
255
255
255
255
255
4
4
4
13
13
13
55
60
51
107
159
56
134
193
77
138
195
83
255
255
255
255
255
255
255
255
255
255
255
255
255
255
255
255
255
255
255
255
255
255
255
255
255
255
255
255
255
255
99
108
51
105
118
61
105
121
63
108
116
54
112
119
56
109
124
59
111
132
66
109
127
59
106
126
56
2
2
2
35
36
34
60
64
56
12
12
12
1
1
1
2
2
2
36
37
35
87
116
56
88
129
46
46
48
43
45
46
44
58
78
38
55
80
28
55
58
51
71
81
63
79
101
58
67
73
60
33
34
32
6
6
6
255
255
255
255
255
255
6
6
6
41
43
39
80
93
67
35
36
33
1
1
1
3
3
3
40
42
38
71
79
63
128
179
78
155
205
106
255
255
255
255
255
255
255
255
255
255
255
255
255
255
255
255
255
255
255
255
255
255
255
255
255
255
255
255
255
255
62
67
33
105
115
59
2
2
2
67
74
60
9
9
9
1
1
1
112
131
67
111
129
64
3
3
3
74
83
65
63
94
32
62
93
31
76
95
56
54
57
51
79
93
66
77
111
41
85
127
43
90
115
65
11
11
11
60
75
45
44
66
22
54
81
27
73
86
58
10
10
10
36
37
34
1
1
1
255
255
255
255
255
255
255
255
255
255
255
255
1
1
1
1
1
1
1
1
1
61
66
55
61
67
56
20
21
20
54
58
49
10
10
10
52
56
49
106
149
63
255
255
255
255
255
255
255
255
255
255
255
255
255
255
255
255
255
255
255
255
255
255
255
255
255
255
255
255
255
255
27
27
12
3
3
3
87
104
71
99
149
50
97
123
72
15
15
15
1
1
1
1
1
1
67
73
62
77
115
39
67
101
34
66
99
33
67
100
33
67
101
34
73
110
37
80
120
40
86
128
43
81
93
69
31
31
30
39
58
20
50
75
26
51
76
26
71
102
40
54
57
50
38
40
36
1
1
1
255
255
255
255
255
255
255
255
255
255
255
255
1
1
1
19
19
19
68
75
60
2
2
2
71
80
63
86
102
71
1
1
1
2
2
2
9
9
9
33
34
33
255
255
255
255
255
255
255
255
255
255
255
255
255
255
255
255
255
255
255
255
255
255
255
255
255
255
255
255
255
255
2
2
2
76
86
66
104
157
53
95
143
48
92
137
46
101
137
67
18
18
17
4
4
4
77
90
65
66
99
33
72
108
36
67
100
34
69
104
35
80
120
40
77
115
39
83
125
42
92
137
46
89
112
68
45
62
29
48
72
24
51
76
26
53
79
27
54
81
27
52
77
26
71
86
56
73
81
65
23
24
23
255
255
255
255
255
255
255
255
255
255
255
255
1
1
1
64
69
58
1
1
1
2
2
2
80
93
68
1
1
1
255
255
255
1
1
1
5
5
5
255
255
255
255
255
255
255
255
255
255
255
255
255
255
255
255
255
255
255
255
255
255
255
255
255
255
255
255
255
255
4
4
4
94
119
69
94
142
48
97
146
49
93
139
47
98
147
50
87
99
75
6
6
6
73
88
59
56
84
28
67
100
33
65
97
33
68
102
34
76
113
38
82
123
41
86
129
43
98
147
49
80
90
69
43
64
22
48
71
24
53
79
27
51
77
26
51
76
26
51
77
26
58
87
29
64
95
32
80
98
62
3
3
3
255
255
255
255
255
255
255
255
255
255
255
255
57
63
51
255
255
255
1
1
1
47
50
44
46
49
44
255
255
255
255
255
255
255
255
255
255
255
255
255
255
255
255
255
255
255
255
255
255
255
255
255
255
255
255
255
255
255
255
255
255
255
255
24
25
24
82
96
67
82
115
49
90
134
45
93
140
47
89
134
45
96
145
49
99
119
79
8
8
8
64
80
49
51
77
26
59
88
30
62
92
31
69
104
35
73
109
37
79
118
40
88
131
44
102
130
76
57
73
42
43
64
22
49
74
25
49
74
25
54
80
27
55
83
28
59
88
30
64
96
32
73
110
37
74
112
38
7
7
7
255
255
255
255
255
255
255
255
255
255
255
255
66
71
60
3
3
3
255
255
255
1
1
1
72
81
63
255
255
255
255
255
255
255
255
255
255
255
255
255
255
255
255
255
255
255
255
255
255
255
255
255
255
255
255
255
255
255
255
255
3
3
3
89
107
71
85
128
43
89
133
45
86
128
43
90
135
45
85
128
43
94
141
47
98
129
68
32
33
31
59
71
47
49
73
25
61
92
31
70
104
35
71
106
36
71
107
36
83
125
42
96
136
55
65
82
49
39
57
20
49
73
25
51
76
26
55
82
28
60
90
30
63
94
32
67
100
34
71
106
36
78
116
39
92
134
50
8
8
8
1
1
1
255
255
255
255
255
255
255
255
255
13
13
13
72
78
67
14
14
14
255
255
255
92
111
74
3
3
3
255
255
255
255
255
255
255
255
255
255
255
255
255
255
255
255
255
255
255
255
255
255
255
255
255
255
255
255
255
255
6
6
6
94
139
52
99
149
50
84
126
42
88
131
44
84
126
42
80
120
40
92
138
46
104
156
52
124
181
68
131
171
92
56
74
38
67
101
34
70
104
35
67
100
34
71
106
36
86
129
43
96
134
59
62
77
47
44
65
23
51
76
26
57
86
29
62
93
31
65
97
33
74
111
37
72
108
36
86
129
43
88
128
48
74
84
64
6
6
6
255
255
255
255
255
255
255
255
255
255
255
255
1
1
1
33
33
31
90
101
80
14
14
13
57
61
53
76
85
68
255
255
255
255
255
255
255
255
255
255
255
255
255
255
255
255
255
255
255
255
255
255
255
255
255
255
255
1
1
1
9
9
9
74
110
38
94
142
48
97
147
49
84
125
42
89
133
45
79
118
40
89
133
45
96
145
49
120
180
63
134
185
84
34
35
33
70
83
58
65
97
33
62
93
31
69
103
34
85
127
43
91
136
46
100
138
61
81
103
59
62
93
31
75
112
38
80
120
40
87
131
44
89
134
45
97
146
49
90
114
68
23
24
23
9
9
9
2
2
2
255
255
255
255
255
255
255
255
255
255
255
255
255
255
255
1
1
1
17
18
17
3
3
3
6
6
6
92
109
75
255
255
255
255
255
255
255
255
255
255
255
255
255
255
255
255
255
255
255
255
255
255
255
255
255
255
255
255
255
255
7
7
7
86
112
60
97
146
49
100
150
50
88
132
44
80
120
40
75
113
38
85
127
43
101
153
51
124
183
66
122
167
79
13
13
13
16
16
16
66
84
48
57
85
29
70
105
36
82
123
41
85
127
43
79
119
40
78
117
39
69
80
59
54
58
50
40
41
38
46
48
44
88
111
66
86
106
67
19
20
19
6
6
6
2
2
2
255
255
255
255
255
255
255
255
255
255
255
255
255
255
255
255
255
255
255
255
255
255
255
255
255
255
255
255
255
255
82
93
72
12
12
11
255
255
255
255
255
255
255
255
255
255
255
255
255
255
255
255
255
255
255
255
255
255
255
255
255
255
255
5
5
5
85
103
67
96
145
49
107
162
54
109
164
55
71
106
36
70
105
35
79
118
40
96
144
48
121
181
62
121
154
88
7
7
7
6
6
6
62
66
58
57
85
29
86
129
43
84
125
42
80
120
40
77
115
39
75
93
56
16
16
16
7
7
7
6
6
6
7
7
7
10
10
10
9
9
9
4
4
4
1
1
1
255
255
255
255
255
255
255
255
255
255
255
255
255
255
255
255
255
255
255
255
255
255
255
255
255
255
255
255
255
255
255
255
255
29
30
28
67
74
60
255
255
255
255
255
255
255
255
255
255
255
255
255
255
255
255
255
255
255
255
255
255
255
255
255
255
255
3
3
3
57
61
53
93
138
49
104
157
53
99
148
53
92
139
47
69
103
35
83
124
42
102
154
52
119
178
61
93
104
81
4
4
4
2
2
2
23
23
23
59
87
31
69
103
35
76
114
38
69
104
35
62
93
31
61
65
57
6
6
6
1
1
1
108
149
65
107
151
72
1
1
1
1
1
1
255
255
255
255
255
255
255
255
255
255
255
255
255
255
255
255
255
255
255
255
255
255
255
255
2
2
2
3
3
3
1
1
1
255
255
255
255
255
255
255
255
255
70
80
60
255
255
255
255
255
255
255
255
255
255
255
255
255
255
255
255
255
255
255
255
255
255
255
255
255
255
255
1
1
1
7
7
7
19
19
19
26
27
26
20
20
20
30
30
29
69
80
59
80
113
46
91
136
46
91
115
67
13
13
13
2
2
2
120
86
51
29
30
28
52
55
50
65
81
48
53
80
27
53
80
27
52
78
26
60
64
56
4
4
4
109
154
78
92
130
67
24
34
16
255
255
255
255
255
255
255
255
255
255
255
255
255
255
255
255
255
255
255
255
255
255
255
255
2
2
2
27
27
26
112
157
67
105
157
57
95
117
74
27
28
26
2
2
2
255
255
255
58
63
53
12
13
12
255
255
255
255
255
255
255
255
255
255
255
255
255
255
255
255
255
255
255
255
255
255
255
255
255
255
255
1
1
1
3
3
3
4
4
4
4
4
4
6
6
6
17
17
16
55
59
50
66
73
59
25
25
24
4
4
4
60
41
24
19
20
19
28
29
27
7
7
7
49
51
47
58
86
29
55
83
28
52
77
26
62
81
44
12
12
12
20
28
15
255
255
255
255
255
255
255
255
255
255
255
255
255
255
255
255
255
255
255
255
255
255
255
255
1
1
1
10
11
10
92
109
75
123
173
75
125
186
66
125
188
65
126
188
66
112
164
60
74
84
65
6
6
6
9
9
9
72
82
63
255
255
255
255
255
255
255
255
255
255
255
255
255
255
255
255
255
255
255
255
255
255
255
255
255
255
255
255
255
255
255
255
255
255
255
255
255
255
255
255
255
255
3
3
3
41
43
38
6
6
6
3
3
3
255
255
255
255
255
255
46
49
43
255
255
255
3
3
3
71
78
64
66
99
33
63
94
32
55
82
28
55
82
28
66
71
61
4
4
4
2
2
2
2
2
2
1
1
1
1
1
1
1
1
1
1
1
1
7
7
7
45
48
43
52
56
48
117
151
85
131
193
72
129
192
68
120
181
61
118
178
60
135
196
76
127
189
66
126
190
65
116
163
71
104
137
72
119
177
63
255
255
255
255
255
255
255
255
255
255
255
255
255
255
255
255
255
255
255
255
255
255
255
255
255
255
255
255
255
255
255
255
255
255
255
255
255
255
255
255
255
255
1
1
1
23
24
22
30
31
29
255
255
255
255
255
255
41
44
39
11
11
11
255
255
255
2
2
2
78
87
69
68
101
34
64
95
32
55
82
28
75
113
39
95
127
65
105
139
74
110
147
74
109
145
75
95
114
76
78
88
69
74
83
65
77
88
67
92
128
57
102
154
52
112
170
57
110
166
56
111
168
56
122
183
63
120
181
62
124
185
65
128
191
67
123
184
64
118
178
60
126
189
65
116
173
59
121
182
62
255
255
255
255
255
255
255
255
255
255
255
255
255
255
255
255
255
255
255
255
255
255
255
255
255
255
255
255
255
255
255
255
255
255
255
255
2
2
2
42
44
40
81
94
69
84
97
70
71
81
62
23
24
22
53
57
48
19
19
18
255
255
255
255
255
255
2
2
2
59
62
55
62
93
31
74
111
37
103
154
53
100
150
50
94
142
48
90
135
45
85
127
43
86
128
43
80
120
40
79
119
40
78
117
39
77
115
39
81
121
41
94
142
48
97
146
49
94
141
48
101
153
51
105
158
53
111
168
57
109
165
55
111
167
57
109
164
55
109
165
55
112
170
57
99
149
50
112
169
56
255
255
255
255
255
255
255
255
255
255
255
255
255
255
255
255
255
255
255
255
255
255
255
255
255
255
255
255
255
255
255
255
255
2
2
2
79
93
65
119
177
62
106
159
53
100
151
51
106
158
55
75
87
63
2
2
2
255
255
255
255
255
255
255
255
255
1
1
1
17
18
17
69
96
43
105
158
55
112
169
57
108
163
55
110
167
56
98
148
50
92
138
46
102
155
52
103
155
52
91
137
46
77
116
39
71
107
36
80
120
40
86
129
44
92
138
46
91
137
46
82
123
41
89
134
45
99
149
50
101
152
51
99
149
50
105
158
53
101
152
51
102
154
52
89
134
45
97
146
49
255
255
255
255
255
255
255
255
255
255
255
255
255
255
255
255
255
255
255
255
255
255
255
255
255
255
255
255
255
255
255
255
255
18
19
18
107
139
75
126
188
66
108
162
55
115
174
59
100
151
50
81
92
69
3
3
3
255
255
255
255
255
255
255
255
255
255
255
255
7
7
7
86
100
71
93
140
47
95
144
48
89
134
45
93
139
47
93
140
47
87
130
44
85
127
43
92
138
46
89
134
45
94
141
47
88
133
44
70
104
35
74
111
37
77
115
39
84
126
43
95
144
48
87
131
44
81
122
41
88
133
45
90
136
46
98
147
49
94
141
47
88
132
44
85
127
43
85
128
43
255
255
255
255
255
255
255
255
255
255
255
255
255
255
255
255
255
255
255
255
255
255
255
255
255
255
255
255
255
255
1
1
1
58
64
52
94
119
71
120
179
62
113
171
57
103
155
52
101
149
55
20
20
20
3
3
3
255
255
255
255
255
255
255
255
255
255
255
255
10
10
10
109
150
69
96
144
50
77
115
39
75
112
38
76
114
38
83
124
42
83
124
42
76
114
38
80
119
40
84
125
42
83
125
42
77
116
39
69
104
35
68
102
35
67
101
34
78
117
39
76
114
38
84
127
43
92
139
47
85
127
43
80
120
40
77
115
39
81
121
41
85
127
43
82
123
41
72
108
36
255
255
255
255
255
255
255
255
255
255
255
255
255
255
255
255
255
255
255
255
255
255
255
255
255
255
255
2
2
2
55
60
49
54
59
49
83
102
65
101
152
51
103
155
52
112
169
57
118
178
60
118
146
91
4
4
4
255
255
255
255
255
255
255
255
255
1
1
1
50
53
47
87
130
44
97
146
49
98
148
50
85
128
43
72
108
36
68
102
34
71
106
36
73
109
37
68
102
34
72
108
36
73
109
37
71
106
36
70
105
35
62
92
31
62
93
31
65
97
33
70
104
35
70
105
35
75
112
38
78
117
39
66
99
33
67
100
34
69
103
35
76
114
38
66
99
33
61
91
30
